<?xml version="1.0" encoding="UTF-8" standalone="no"?>

<svg
   width="217.03551mm"
   height="245.80551mm"
   viewBox="0 0 217.03551 245.80551"
   version="1.1"
   id="svg1859"
   xmlns="http://www.w3.org/2000/svg"
   xmlns:svg="http://www.w3.org/2000/svg">
  <defs
     id="defs1856" />
  <g
     id="layer1"
     transform="translate(6.901623,-5.563168)">
    <path
       style="fill:none;stroke:#000000;stroke-width:0.264583px;stroke-linecap:butt;stroke-linejoin:miter;stroke-opacity:1"
       d="m 62.64498,25.715927 v 79.999993 l 129.90382,75 v -80 z"
       id="path2950" />
    <g
       id="g1477"
       transform="translate(400.39489,60.715925)">
      <path
         style="fill:#ffffff;stroke:#000000;stroke-width:0.264583px;stroke-linecap:butt;stroke-linejoin:miter;stroke-opacity:1"
         d="M -407.03193,94.999999 -346.41017,59.999998 -207.84609,140 l -60.62177,35 z"
         id="path3102" />
      <path
         style="fill:#ffffff;stroke:#000000;stroke-width:0.264583px;stroke-linecap:butt;stroke-linejoin:miter;stroke-opacity:1"
         d="M -407.03193,94.999999 V 105 l 138.56407,80 60.62177,-35 v -10 l -60.62177,35 v 10 -10 z"
         id="path3104" />
    </g>
    <g
       id="g1076"
       transform="translate(400.39489,60.715925)">
      <path
         style="fill:#ffffff;stroke:#000000;stroke-width:0.264583px;stroke-linecap:butt;stroke-linejoin:miter;stroke-opacity:1"
         d="M -294.44862,79.999998 V 89.999999 L -277.12813,100 V 89.999999 Z"
         id="path3449" />
      <path
         style="fill:#ffffff;stroke:#000000;stroke-width:0.264583px;stroke-linecap:butt;stroke-linejoin:miter;stroke-opacity:1"
         d="M -272.79801,92.499999 V 102.5 l -4.33012,-2.5 V 89.999999 Z"
         id="path3991" />
    </g>
    <g
       id="g1473"
       transform="translate(400.39489,60.715925)">
      <path
         style="fill:#ffffff;stroke:#000000;stroke-width:0.264583px;stroke-linecap:butt;stroke-linejoin:miter;stroke-opacity:1"
         d="m -242.48712,125 -8.66024,5 8.66024,5 8.66026,-5 z"
         id="path4225" />
      <g
         id="g1372">
        <path
           style="fill:#ffffff;stroke:#000000;stroke-width:0.264583px;stroke-linecap:butt;stroke-linejoin:miter;stroke-opacity:1"
           d="m -346.41016,65 -8.66024,5.000001 8.66024,4.999998 8.66026,-4.999998 z"
           id="path3219" />
        <path
           style="fill:#808080;stroke:#000000;stroke-width:0.264583px;stroke-linecap:butt;stroke-linejoin:miter;stroke-opacity:1"
           d="m -355.0704,70.000001 v 0.999998 l 8.66024,5 8.66026,-5 v -0.999998 l -8.66026,4.999998 v 1 -1 z"
           id="path3566" />
        <path
           style="fill:#ffffff;stroke:#000000;stroke-width:0.264583px;stroke-linecap:butt;stroke-linejoin:miter;stroke-opacity:1"
           d="m -336.01786,71.000001 -8.66024,5.000001 8.66024,4.999998 8.66026,-4.999998 z"
           id="path4171" />
        <path
           style="fill:#808080;stroke:#000000;stroke-width:0.264583px;stroke-linecap:butt;stroke-linejoin:miter;stroke-opacity:1"
           d="M -344.6781,76.000002 V 77 l 8.66024,5 8.66026,-5 V 76.000002 L -336.01786,81 v 1 -1 z"
           id="path4173" />
        <path
           style="fill:#ffffff;stroke:#000000;stroke-width:0.264583px;stroke-linecap:butt;stroke-linejoin:miter;stroke-opacity:1"
           d="M -325.62556,76.999999 -334.2858,82 -325.62556,86.999998 -316.9653,82 Z"
           id="path4177" />
        <path
           style="fill:#808080;stroke:#000000;stroke-width:0.264583px;stroke-linecap:butt;stroke-linejoin:miter;stroke-opacity:1"
           d="m -334.2858,82 v 0.999998 l 8.66024,5 8.66026,-5 V 82 l -8.66026,4.999998 v 1 -1 z"
           id="path4179" />
        <path
           style="fill:#ffffff;stroke:#000000;stroke-width:0.264583px;stroke-linecap:butt;stroke-linejoin:miter;stroke-opacity:1"
           d="m -315.23325,83.000001 -8.66024,5.000001 8.66024,4.999998 8.66026,-4.999998 z"
           id="path4183" />
        <path
           style="fill:#808080;stroke:#000000;stroke-width:0.264583px;stroke-linecap:butt;stroke-linejoin:miter;stroke-opacity:1"
           d="M -323.89349,88.000002 V 89 l 8.66024,5 8.66026,-5 V 88.000002 L -315.23325,93 v 1 -1 z"
           id="path4185" />
        <path
           style="fill:#ffffff;stroke:#000000;stroke-width:0.264583px;stroke-linecap:butt;stroke-linejoin:miter;stroke-opacity:1"
           d="m -304.84094,88.999998 -8.66024,5.000001 8.66024,4.999998 8.66026,-4.999998 z"
           id="path4189" />
        <path
           style="fill:#808080;stroke:#000000;stroke-width:0.264583px;stroke-linecap:butt;stroke-linejoin:miter;stroke-opacity:1"
           d="m -313.50118,93.999999 v 0.999998 l 8.66024,5 8.66026,-5 v -0.999998 l -8.66026,4.999998 v 1 -1 z"
           id="path4191" />
        <path
           style="fill:#ffffff;stroke:#000000;stroke-width:0.264583px;stroke-linecap:butt;stroke-linejoin:miter;stroke-opacity:1"
           d="M -294.44864,94.999999 -303.10888,100 l 8.66024,5 8.66026,-5 z"
           id="path4195" />
        <path
           style="fill:#808080;stroke:#000000;stroke-width:0.264583px;stroke-linecap:butt;stroke-linejoin:miter;stroke-opacity:1"
           d="m -303.10888,100 v 1 l 8.66024,5 8.66026,-5 v -1 l -8.66026,5 v 1 -1 z"
           id="path4197" />
        <path
           style="fill:#ffffff;stroke:#000000;stroke-width:0.264583px;stroke-linecap:butt;stroke-linejoin:miter;stroke-opacity:1"
           d="m -284.05634,101 -8.66024,5 8.66024,5 8.66026,-5 z"
           id="path4201" />
        <path
           style="fill:#808080;stroke:#000000;stroke-width:0.264583px;stroke-linecap:butt;stroke-linejoin:miter;stroke-opacity:1"
           d="m -292.71658,106 v 1 l 8.66024,5 8.66026,-5 v -1 l -8.66026,5 v 1 -1 z"
           id="path4203" />
        <path
           style="fill:#ffffff;stroke:#000000;stroke-width:0.264583px;stroke-linecap:butt;stroke-linejoin:miter;stroke-opacity:1"
           d="m -273.66403,107 -8.66024,5 8.66024,5 8.66026,-5 z"
           id="path4207" />
        <path
           style="fill:#808080;stroke:#000000;stroke-width:0.264583px;stroke-linecap:butt;stroke-linejoin:miter;stroke-opacity:1"
           d="m -282.32427,112 v 1 l 8.66024,5 8.66026,-5 v -1 l -8.66026,5 v 1 -1 z"
           id="path4209" />
        <path
           style="fill:#ffffff;stroke:#000000;stroke-width:0.264583px;stroke-linecap:butt;stroke-linejoin:miter;stroke-opacity:1"
           d="m -263.27172,113 -8.66024,5 8.66024,5 8.66026,-5 z"
           id="path4213" />
        <path
           style="fill:#808080;stroke:#000000;stroke-width:0.264583px;stroke-linecap:butt;stroke-linejoin:miter;stroke-opacity:1"
           d="m -271.93196,118 v 1 l 8.66024,5 8.66026,-5 v -1 l -8.66026,5 v 1 -1 z"
           id="path4215" />
        <path
           style="fill:#ffffff;stroke:#000000;stroke-width:0.264583px;stroke-linecap:butt;stroke-linejoin:miter;stroke-opacity:1"
           d="m -252.87942,119 -8.66024,5 8.66024,5 8.66026,-5 z"
           id="path4219" />
        <path
           style="fill:#808080;stroke:#000000;stroke-width:0.264583px;stroke-linecap:butt;stroke-linejoin:miter;stroke-opacity:1"
           d="m -261.53966,124 v 1 l 8.66024,5 8.66026,-5 v -1 l -8.66026,5 v 1 -1 z"
           id="path4221" />
        <path
           style="fill:#808080;stroke:#000000;stroke-width:0.264583px;stroke-linecap:butt;stroke-linejoin:miter;stroke-opacity:1"
           d="m -251.14736,130 v 1 l 8.66024,5 8.66026,-5 v -1 l -8.66026,5 v 1 -1 z"
           id="path4227" />
        <path
           style="fill:#ffffff;stroke:#000000;stroke-width:0.264583px;stroke-linecap:butt;stroke-linejoin:miter;stroke-opacity:1"
           d="m -232.09481,131 -8.66024,5 8.66024,5 8.66026,-5 z"
           id="path4231" />
        <path
           style="fill:#808080;stroke:#000000;stroke-width:0.264583px;stroke-linecap:butt;stroke-linejoin:miter;stroke-opacity:1"
           d="m -240.75505,136 v 1 l 8.66024,5 8.66026,-5 v -1 l -8.66026,5 v 1 -1 z"
           id="path4233" />
        <path
           style="fill:#ffffff;stroke:#000000;stroke-width:0.264583px;stroke-linecap:butt;stroke-linejoin:miter;stroke-opacity:1"
           d="m -356.80246,71.000002 -8.66024,5.000001 8.66024,4.999998 8.66026,-4.999998 z"
           id="path4237" />
        <path
           style="fill:#808080;stroke:#000000;stroke-width:0.264583px;stroke-linecap:butt;stroke-linejoin:miter;stroke-opacity:1"
           d="m -365.4627,76.000003 v 0.999998 l 8.66024,5 8.66026,-5 v -0.999998 l -8.66026,4.999998 v 1 -1 z"
           id="path4239" />
        <path
           style="fill:#ffffff;stroke:#000000;stroke-width:0.264583px;stroke-linecap:butt;stroke-linejoin:miter;stroke-opacity:1"
           d="m -346.41016,77.000003 -8.66024,5.000001 8.66024,4.999998 8.66026,-4.999998 z"
           id="path4243" />
        <path
           style="fill:#808080;stroke:#000000;stroke-width:0.264583px;stroke-linecap:butt;stroke-linejoin:miter;stroke-opacity:1"
           d="m -355.0704,82.000004 v 0.999998 l 8.66024,5 8.66026,-5 v -0.999998 l -8.66026,4.999998 v 1 -1 z"
           id="path4245" />
        <path
           style="fill:#ffffff;stroke:#000000;stroke-width:0.264583px;stroke-linecap:butt;stroke-linejoin:miter;stroke-opacity:1"
           d="m -336.01786,83.000001 -8.66024,5.000001 8.66024,4.999998 8.66026,-4.999998 z"
           id="path4249" />
        <path
           style="fill:#808080;stroke:#000000;stroke-width:0.264583px;stroke-linecap:butt;stroke-linejoin:miter;stroke-opacity:1"
           d="M -344.6781,88.000002 V 89 l 8.66024,5 8.66026,-5 V 88.000002 L -336.01786,93 v 1 -1 z"
           id="path4251" />
        <path
           style="fill:#ffffff;stroke:#000000;stroke-width:0.264583px;stroke-linecap:butt;stroke-linejoin:miter;stroke-opacity:1"
           d="m -325.62555,89.000003 -8.66024,5.000001 8.66024,4.999998 8.66026,-4.999998 z"
           id="path4255" />
        <path
           style="fill:#808080;stroke:#000000;stroke-width:0.264583px;stroke-linecap:butt;stroke-linejoin:miter;stroke-opacity:1"
           d="m -334.28579,94.000004 v 0.999998 l 8.66024,4.999998 8.66026,-4.999998 v -0.999998 l -8.66026,4.999998 V 100 99.000002 Z"
           id="path4257" />
        <path
           style="fill:#ffffff;stroke:#000000;stroke-width:0.264583px;stroke-linecap:butt;stroke-linejoin:miter;stroke-opacity:1"
           d="m -315.23324,95 -8.66024,5 8.66024,5 8.66026,-5 z"
           id="path4261" />
        <path
           style="fill:#808080;stroke:#000000;stroke-width:0.264583px;stroke-linecap:butt;stroke-linejoin:miter;stroke-opacity:1"
           d="m -323.89348,100 v 1 l 8.66024,5 8.66026,-5 v -1 l -8.66026,5 v 1 -1 z"
           id="path4263" />
        <path
           style="fill:#ffffff;stroke:#000000;stroke-width:0.264583px;stroke-linecap:butt;stroke-linejoin:miter;stroke-opacity:1"
           d="m -304.84094,101 -8.66024,5 8.66024,5 8.66026,-5 z"
           id="path4267" />
        <path
           style="fill:#808080;stroke:#000000;stroke-width:0.264583px;stroke-linecap:butt;stroke-linejoin:miter;stroke-opacity:1"
           d="m -313.50118,106 v 1 l 8.66024,5 8.66026,-5 v -1 l -8.66026,5 v 1 -1 z"
           id="path4269" />
        <path
           style="fill:#ffffff;stroke:#000000;stroke-width:0.264583px;stroke-linecap:butt;stroke-linejoin:miter;stroke-opacity:1"
           d="m -294.44864,107 -8.66024,5 8.66024,5 8.66026,-5 z"
           id="path4273" />
        <path
           style="fill:#808080;stroke:#000000;stroke-width:0.264583px;stroke-linecap:butt;stroke-linejoin:miter;stroke-opacity:1"
           d="m -303.10888,112 v 1 l 8.66024,5 8.66026,-5 v -1 l -8.66026,5 v 1 -1 z"
           id="path4275" />
        <path
           style="fill:#ffffff;stroke:#000000;stroke-width:0.264583px;stroke-linecap:butt;stroke-linejoin:miter;stroke-opacity:1"
           d="m -284.05633,113 -8.66024,5 8.66024,5 8.66026,-5 z"
           id="path4279" />
        <path
           style="fill:#808080;stroke:#000000;stroke-width:0.264583px;stroke-linecap:butt;stroke-linejoin:miter;stroke-opacity:1"
           d="m -292.71657,118 v 1 l 8.66024,5 8.66026,-5 v -1 l -8.66026,5 v 1 -1 z"
           id="path4281" />
        <path
           style="fill:#ffffff;stroke:#000000;stroke-width:0.264583px;stroke-linecap:butt;stroke-linejoin:miter;stroke-opacity:1"
           d="m -273.66402,119 -8.66024,5 8.66024,5 8.66026,-5 z"
           id="path4285" />
        <path
           style="fill:#808080;stroke:#000000;stroke-width:0.264583px;stroke-linecap:butt;stroke-linejoin:miter;stroke-opacity:1"
           d="m -282.32426,124 v 1 l 8.66024,5 8.66026,-5 v -1 l -8.66026,5 v 1 -1 z"
           id="path4287" />
        <path
           style="fill:#ffffff;stroke:#000000;stroke-width:0.264583px;stroke-linecap:butt;stroke-linejoin:miter;stroke-opacity:1"
           d="m -263.27172,125 -8.66024,5 8.66024,5 8.66026,-5 z"
           id="path4291" />
        <path
           style="fill:#808080;stroke:#000000;stroke-width:0.264583px;stroke-linecap:butt;stroke-linejoin:miter;stroke-opacity:1"
           d="m -271.93196,130 v 1 l 8.66024,5 8.66026,-5 v -1 l -8.66026,5 v 1 -1 z"
           id="path4293" />
        <path
           style="fill:#ffffff;stroke:#000000;stroke-width:0.264583px;stroke-linecap:butt;stroke-linejoin:miter;stroke-opacity:1"
           d="m -252.87942,131 -8.66024,5 8.66024,5 8.66026,-5 z"
           id="path4297" />
        <path
           style="fill:#808080;stroke:#000000;stroke-width:0.264583px;stroke-linecap:butt;stroke-linejoin:miter;stroke-opacity:1"
           d="m -261.53966,136 v 1 l 8.66024,5 8.66026,-5 v -1 l -8.66026,5 v 1 -1 z"
           id="path4299" />
        <path
           style="fill:#ffffff;stroke:#000000;stroke-width:0.264583px;stroke-linecap:butt;stroke-linejoin:miter;stroke-opacity:1"
           d="m -242.48711,137 -8.66024,5 8.66024,5 8.66026,-5 z"
           id="path4303" />
        <path
           style="fill:#808080;stroke:#000000;stroke-width:0.264583px;stroke-linecap:butt;stroke-linejoin:miter;stroke-opacity:1"
           d="m -251.14735,142 v 1 l 8.66024,5 8.66026,-5 v -1 l -8.66026,5 v 1 -1 z"
           id="path4305" />
        <path
           style="fill:#ffffff;stroke:#000000;stroke-width:0.264583px;stroke-linecap:butt;stroke-linejoin:miter;stroke-opacity:1"
           d="m -367.19476,77.000004 -8.66024,5.000001 8.66024,4.999998 8.66026,-4.999998 z"
           id="path4309" />
        <path
           style="fill:#808080;stroke:#000000;stroke-width:0.264583px;stroke-linecap:butt;stroke-linejoin:miter;stroke-opacity:1"
           d="m -375.855,82.000005 v 0.999998 l 8.66024,5 8.66026,-5 v -0.999998 l -8.66026,4.999998 v 1 -1 z"
           id="path4311" />
        <path
           style="fill:#ffffff;stroke:#000000;stroke-width:0.264583px;stroke-linecap:butt;stroke-linejoin:miter;stroke-opacity:1"
           d="m -356.80247,83.000005 -8.66024,5.000001 8.66024,4.999998 8.66026,-4.999998 z"
           id="path4315" />
        <path
           style="fill:#808080;stroke:#000000;stroke-width:0.264583px;stroke-linecap:butt;stroke-linejoin:miter;stroke-opacity:1"
           d="m -365.46271,88.000006 v 0.999998 l 8.66024,5 8.66026,-5 v -0.999998 l -8.66026,4.999998 v 1 -1 z"
           id="path4317" />
        <path
           style="fill:#ffffff;stroke:#000000;stroke-width:0.264583px;stroke-linecap:butt;stroke-linejoin:miter;stroke-opacity:1"
           d="m -346.41016,89.000003 -8.66024,5.000001 8.66024,4.999998 8.66026,-4.999998 z"
           id="path4321" />
        <path
           style="fill:#808080;stroke:#000000;stroke-width:0.264583px;stroke-linecap:butt;stroke-linejoin:miter;stroke-opacity:1"
           d="m -355.0704,94.000004 v 0.999998 l 8.66024,4.999998 8.66026,-4.999998 v -0.999998 l -8.66026,4.999998 V 100 99.000002 Z"
           id="path4323" />
        <path
           style="fill:#ffffff;stroke:#000000;stroke-width:0.264583px;stroke-linecap:butt;stroke-linejoin:miter;stroke-opacity:1"
           d="m -336.01786,95.000005 -8.66024,5.000005 8.66024,4.99999 8.66026,-4.99999 z"
           id="path4327" />
        <path
           style="fill:#808080;stroke:#000000;stroke-width:0.264583px;stroke-linecap:butt;stroke-linejoin:miter;stroke-opacity:1"
           d="M -344.6781,100.00001 V 101 l 8.66024,5 8.66026,-5 v -0.99999 L -336.01786,105 v 1 -1 z"
           id="path4329" />
        <path
           style="fill:#ffffff;stroke:#000000;stroke-width:0.264583px;stroke-linecap:butt;stroke-linejoin:miter;stroke-opacity:1"
           d="m -325.62554,101 -8.66024,5 8.66024,5 8.66026,-5 z"
           id="path4333" />
        <path
           style="fill:#808080;stroke:#000000;stroke-width:0.264583px;stroke-linecap:butt;stroke-linejoin:miter;stroke-opacity:1"
           d="m -334.28578,106 v 1 l 8.66024,5 8.66026,-5 v -1 l -8.66026,5 v 1 -1 z"
           id="path4335" />
        <path
           style="fill:#ffffff;stroke:#000000;stroke-width:0.264583px;stroke-linecap:butt;stroke-linejoin:miter;stroke-opacity:1"
           d="m -315.23325,107 -8.66024,5 8.66024,5 8.66026,-5 z"
           id="path4339" />
        <path
           style="fill:#808080;stroke:#000000;stroke-width:0.264583px;stroke-linecap:butt;stroke-linejoin:miter;stroke-opacity:1"
           d="m -323.89349,112 v 1 l 8.66024,5 8.66026,-5 v -1 l -8.66026,5 v 1 -1 z"
           id="path4341" />
        <path
           style="fill:#ffffff;stroke:#000000;stroke-width:0.264583px;stroke-linecap:butt;stroke-linejoin:miter;stroke-opacity:1"
           d="m -304.84094,113 -8.66024,5 8.66024,5 8.66026,-5 z"
           id="path4345" />
        <path
           style="fill:#808080;stroke:#000000;stroke-width:0.264583px;stroke-linecap:butt;stroke-linejoin:miter;stroke-opacity:1"
           d="m -313.50118,118 v 1 l 8.66024,5 8.66026,-5 v -1 l -8.66026,5 v 1 -1 z"
           id="path4347" />
        <path
           style="fill:#ffffff;stroke:#000000;stroke-width:0.264583px;stroke-linecap:butt;stroke-linejoin:miter;stroke-opacity:1"
           d="m -294.44864,119 -8.66024,5 8.66024,5 8.66026,-5 z"
           id="path4351" />
        <path
           style="fill:#808080;stroke:#000000;stroke-width:0.264583px;stroke-linecap:butt;stroke-linejoin:miter;stroke-opacity:1"
           d="m -303.10888,124 v 1 l 8.66024,5 8.66026,-5 v -1 l -8.66026,5 v 1 -1 z"
           id="path4353" />
        <path
           style="fill:#ffffff;stroke:#000000;stroke-width:0.264583px;stroke-linecap:butt;stroke-linejoin:miter;stroke-opacity:1"
           d="m -284.05632,125 -8.66024,5 8.66024,5 8.66026,-5 z"
           id="path4357" />
        <path
           style="fill:#808080;stroke:#000000;stroke-width:0.264583px;stroke-linecap:butt;stroke-linejoin:miter;stroke-opacity:1"
           d="m -292.71656,130 v 1 l 8.66024,5 8.66026,-5 v -1 l -8.66026,5 v 1 -1 z"
           id="path4359" />
        <path
           style="fill:#ffffff;stroke:#000000;stroke-width:0.264583px;stroke-linecap:butt;stroke-linejoin:miter;stroke-opacity:1"
           d="m -273.66403,131 -8.66024,5 8.66024,5 8.66026,-5 z"
           id="path4363" />
        <path
           style="fill:#808080;stroke:#000000;stroke-width:0.264583px;stroke-linecap:butt;stroke-linejoin:miter;stroke-opacity:1"
           d="m -282.32427,136 v 1 l 8.66024,5 8.66026,-5 v -1 l -8.66026,5 v 1 -1 z"
           id="path4365" />
        <path
           style="fill:#ffffff;stroke:#000000;stroke-width:0.264583px;stroke-linecap:butt;stroke-linejoin:miter;stroke-opacity:1"
           d="m -263.27172,137 -8.66024,5 8.66024,5 8.66026,-5 z"
           id="path4369" />
        <path
           style="fill:#808080;stroke:#000000;stroke-width:0.264583px;stroke-linecap:butt;stroke-linejoin:miter;stroke-opacity:1"
           d="m -271.93196,142 v 1 l 8.66024,5 8.66026,-5 v -1 l -8.66026,5 v 1 -1 z"
           id="path4371" />
        <path
           style="fill:#ffffff;stroke:#000000;stroke-width:0.264583px;stroke-linecap:butt;stroke-linejoin:miter;stroke-opacity:1"
           d="m -252.87942,143 -8.66024,5 8.66024,5 8.66026,-5 z"
           id="path4375" />
        <path
           style="fill:#808080;stroke:#000000;stroke-width:0.264583px;stroke-linecap:butt;stroke-linejoin:miter;stroke-opacity:1"
           d="m -261.53966,148 v 1 l 8.66024,5 8.66026,-5 v -1 l -8.66026,5 v 1 -1 z"
           id="path4377" />
        <path
           style="fill:#ffffff;stroke:#000000;stroke-width:0.264583px;stroke-linecap:butt;stroke-linejoin:miter;stroke-opacity:1"
           d="m -377.58707,83.000002 -8.66024,5.000001 8.66024,4.999998 8.66026,-4.999998 z"
           id="path4381" />
        <path
           style="fill:#808080;stroke:#000000;stroke-width:0.264583px;stroke-linecap:butt;stroke-linejoin:miter;stroke-opacity:1"
           d="m -386.24731,88.000003 v 0.999998 l 8.66024,5 8.66026,-5 v -0.999998 l -8.66026,4.999998 v 1 -1 z"
           id="path4383" />
        <path
           style="fill:#ffffff;stroke:#000000;stroke-width:0.264583px;stroke-linecap:butt;stroke-linejoin:miter;stroke-opacity:1"
           d="m -367.19477,89.000003 -8.66024,5.000001 8.66024,4.999998 8.66026,-4.999998 z"
           id="path4387" />
        <path
           style="fill:#808080;stroke:#000000;stroke-width:0.264583px;stroke-linecap:butt;stroke-linejoin:miter;stroke-opacity:1"
           d="m -375.85501,94.000004 v 0.999998 l 8.66024,4.999998 8.66026,-4.999998 v -0.999998 l -8.66026,4.999998 V 100 99.000002 Z"
           id="path4389" />
        <path
           style="fill:#ffffff;stroke:#000000;stroke-width:0.264583px;stroke-linecap:butt;stroke-linejoin:miter;stroke-opacity:1"
           d="M -356.80247,95.000001 -365.46271,100 l 8.66024,5 8.66026,-5 z"
           id="path4393" />
        <path
           style="fill:#808080;stroke:#000000;stroke-width:0.264583px;stroke-linecap:butt;stroke-linejoin:miter;stroke-opacity:1"
           d="m -365.46271,100 v 1 l 8.66024,5 8.66026,-5 v -1 l -8.66026,5 v 1 -1 z"
           id="path4395" />
        <path
           style="fill:#ffffff;stroke:#000000;stroke-width:0.264583px;stroke-linecap:butt;stroke-linejoin:miter;stroke-opacity:1"
           d="m -346.41016,101 -8.66024,5 8.66024,5 8.66026,-5 z"
           id="path4399" />
        <path
           style="fill:#808080;stroke:#000000;stroke-width:0.264583px;stroke-linecap:butt;stroke-linejoin:miter;stroke-opacity:1"
           d="m -355.0704,106 v 1 l 8.66024,5 8.66026,-5 v -1 l -8.66026,5 v 1 -1 z"
           id="path4401" />
        <path
           style="fill:#ffffff;stroke:#000000;stroke-width:0.264583px;stroke-linecap:butt;stroke-linejoin:miter;stroke-opacity:1"
           d="m -336.01785,107 -8.66024,5 8.66024,5 8.66026,-5 z"
           id="path4405" />
        <path
           style="fill:#808080;stroke:#000000;stroke-width:0.264583px;stroke-linecap:butt;stroke-linejoin:miter;stroke-opacity:1"
           d="m -344.67809,112 v 1 l 8.66024,5 8.66026,-5 v -1 l -8.66026,5 v 1 -1 z"
           id="path4407" />
        <path
           style="fill:#ffffff;stroke:#000000;stroke-width:0.264583px;stroke-linecap:butt;stroke-linejoin:miter;stroke-opacity:1"
           d="m -325.62555,113 -8.66024,5 8.66024,5 8.66026,-5 z"
           id="path4411" />
        <path
           style="fill:#808080;stroke:#000000;stroke-width:0.264583px;stroke-linecap:butt;stroke-linejoin:miter;stroke-opacity:1"
           d="m -334.28579,118 v 1 l 8.66024,5 8.66026,-5 v -1 l -8.66026,5 v 1 -1 z"
           id="path4413" />
        <path
           style="fill:#ffffff;stroke:#000000;stroke-width:0.264583px;stroke-linecap:butt;stroke-linejoin:miter;stroke-opacity:1"
           d="m -315.23325,119 -8.66024,5 8.66024,5 8.66026,-5 z"
           id="path4417" />
        <path
           style="fill:#808080;stroke:#000000;stroke-width:0.264583px;stroke-linecap:butt;stroke-linejoin:miter;stroke-opacity:1"
           d="m -323.89349,124 v 1 l 8.66024,5 8.66026,-5 v -1 l -8.66026,5 v 1 -1 z"
           id="path4419" />
        <path
           style="fill:#ffffff;stroke:#000000;stroke-width:0.264583px;stroke-linecap:butt;stroke-linejoin:miter;stroke-opacity:1"
           d="m -304.84094,125 -8.66024,5 8.66024,5 8.66026,-5 z"
           id="path4423" />
        <path
           style="fill:#808080;stroke:#000000;stroke-width:0.264583px;stroke-linecap:butt;stroke-linejoin:miter;stroke-opacity:1"
           d="m -313.50118,130 v 1 l 8.66024,5 8.66026,-5 v -1 l -8.66026,5 v 1 -1 z"
           id="path4425" />
        <path
           style="fill:#ffffff;stroke:#000000;stroke-width:0.264583px;stroke-linecap:butt;stroke-linejoin:miter;stroke-opacity:1"
           d="m -294.44863,131 -8.66024,5 8.66024,5 8.66026,-5 z"
           id="path4429" />
        <path
           style="fill:#808080;stroke:#000000;stroke-width:0.264583px;stroke-linecap:butt;stroke-linejoin:miter;stroke-opacity:1"
           d="m -303.10887,136 v 1 l 8.66024,5 8.66026,-5 v -1 l -8.66026,5 v 1 -1 z"
           id="path4431" />
        <path
           style="fill:#ffffff;stroke:#000000;stroke-width:0.264583px;stroke-linecap:butt;stroke-linejoin:miter;stroke-opacity:1"
           d="m -284.05633,137 -8.66024,5 8.66024,5 8.66026,-5 z"
           id="path4435" />
        <path
           style="fill:#808080;stroke:#000000;stroke-width:0.264583px;stroke-linecap:butt;stroke-linejoin:miter;stroke-opacity:1"
           d="m -292.71657,142 v 1 l 8.66024,5 8.66026,-5 v -1 l -8.66026,5 v 1 -1 z"
           id="path4437" />
        <path
           style="fill:#ffffff;stroke:#000000;stroke-width:0.264583px;stroke-linecap:butt;stroke-linejoin:miter;stroke-opacity:1"
           d="m -273.66403,143 -8.66024,5 8.66024,5 8.66026,-5 z"
           id="path4441" />
        <path
           style="fill:#808080;stroke:#000000;stroke-width:0.264583px;stroke-linecap:butt;stroke-linejoin:miter;stroke-opacity:1"
           d="m -282.32427,148 v 1 l 8.66024,5 8.66026,-5 v -1 l -8.66026,5 v 1 -1 z"
           id="path4443" />
        <path
           style="fill:#ffffff;stroke:#000000;stroke-width:0.264583px;stroke-linecap:butt;stroke-linejoin:miter;stroke-opacity:1"
           d="m -263.27172,149 -8.66024,5 8.66024,5 8.66026,-5 z"
           id="path4447" />
        <path
           style="fill:#808080;stroke:#000000;stroke-width:0.264583px;stroke-linecap:butt;stroke-linejoin:miter;stroke-opacity:1"
           d="m -271.93196,154 v 1 l 8.66024,5 8.66026,-5 v -1 l -8.66026,5 v 1 -1 z"
           id="path4449" />
        <path
           style="fill:#ffffff;stroke:#000000;stroke-width:0.264583px;stroke-linecap:butt;stroke-linejoin:miter;stroke-opacity:1"
           d="m -346.41017,113 -8.66024,5 40.70319,23.5 8.66026,-5 z"
           id="path4646" />
        <path
           style="fill:#808080;stroke:#000000;stroke-width:0.264583px;stroke-linecap:butt;stroke-linejoin:miter;stroke-opacity:1"
           d="m -355.07041,118 v 1 l 40.70319,23.5 8.66026,-5 v -1 l -8.66026,5 v 1 -1 z"
           id="path4648" />
      </g>
    </g>
    <g
       id="g1011"
       transform="translate(400.39489,60.715925)">
      <path
         style="fill:#ffffff;stroke:#000000;stroke-width:0.264583px;stroke-linecap:butt;stroke-linejoin:miter;stroke-opacity:1"
         d="m -242.48711,180 17.32051,-10 12.99038,7.5 -17.32051,10 z"
         id="path5275" />
      <path
         style="fill:#ffffff;stroke:#000000;stroke-width:0.264583px;stroke-linecap:butt;stroke-linejoin:miter;stroke-opacity:1"
         d="m -242.48711,180 v 3 l 12.99038,7.5 17.32051,-10 v -3 l -17.32051,10 v 3 -3 z"
         id="path5277" />
      <path
         style="fill:#ffffff;stroke:#000000;stroke-width:0.264583px;stroke-linecap:butt;stroke-linejoin:miter;stroke-opacity:1"
         d="m -230.79577,173.25 12.99038,7.5 5.62917,-3.25 -12.99038,-7.5 z"
         id="path6194" />
      <path
         style="fill:#ffffff;stroke:#000000;stroke-width:0.264583px;stroke-linecap:butt;stroke-linejoin:miter;stroke-opacity:1"
         d="m -224.30058,177 5.62917,-3.25 z"
         id="path6196" />
      <path
         style="fill:#ffffff;stroke:#000000;stroke-width:0.264583px;stroke-linecap:butt;stroke-linejoin:miter;stroke-opacity:1"
         d="m -231.05557,173.4 12.99038,7.5 0.1732,-0.1 -12.99038,-7.5 z"
         id="path6424" />
    </g>
    <path
       style="fill:#ffffff;stroke:#000000;stroke-width:0.264583px;stroke-linecap:butt;stroke-linejoin:miter;stroke-opacity:1"
       d="m 53.98472,10.715925 147.22433,84.999998 v 99.999997 l 8.66025,-5 V 90.715925 l -8.66025,4.999998 8.66025,-4.999998 -147.22432,-85 z"
       id="path7269" />
    <g
       id="g1072"
       transform="translate(400.39489,60.715925)">
      <path
         style="fill:#ffffff;stroke:#000000;stroke-width:0.264583px;stroke-linecap:butt;stroke-linejoin:miter;stroke-opacity:1"
         d="m -195.72174,117 v 5 l 0.86603,0.5 v -5 z"
         id="path6816" />
      <path
         style="fill:#ffffff;stroke:#000000;stroke-width:0.264583px;stroke-linecap:butt;stroke-linejoin:miter;stroke-opacity:1"
         d="m -195.72174,117 0.86603,-0.5 0.86602,0.5 v 5 l -0.86602,0.5 v -5 l 0.86602,-0.5 -0.86602,0.5 z"
         id="path6818" />
      <path
         style="fill:#ffffff;stroke:#000000;stroke-width:0.264583px;stroke-linecap:butt;stroke-linejoin:miter;stroke-opacity:1"
         d="m -195.72174,110 v 5 l 0.86603,0.5 v -5 z"
         id="path6900" />
      <path
         style="fill:#ffffff;stroke:#000000;stroke-width:0.264583px;stroke-linecap:butt;stroke-linejoin:miter;stroke-opacity:1"
         d="m -195.72174,110 0.86603,-0.5 0.86602,0.5 v 5 l -0.86602,0.5 v -5 l 0.86602,-0.5 -0.86602,0.5 z"
         id="path6902" />
      <path
         id="path7473"
         style="fill:#ffffff;stroke:#000000;stroke-width:0.264583px;stroke-linecap:butt;stroke-linejoin:miter;stroke-opacity:1"
         d="M -346.41038,-50.000048 V 50.000048 l 147.22461,84.999982 V 34.99993 Z m 8.66045,15.000118 129.9037,75.000072 v 79.999768 l -129.9037,-75.000075 z" />
      <path
         style="fill:#cccccc;stroke:#000000;stroke-width:0.264583px;stroke-linecap:butt;stroke-linejoin:miter;stroke-opacity:1"
         d="M -329.08965,-30 V 39.999999 L -207.84609,110 v 10 l -129.90382,-75.000001 8.66026,-5 -8.66026,5 v -79.999997 z"
         id="path7774" />
    </g>
    <g
       id="g1035"
       transform="translate(400.39489,60.715925)">
      <path
         id="path9046"
         style="fill:#ffffff;stroke:#000000;stroke-width:0.999999px;stroke-linecap:butt;stroke-linejoin:miter;stroke-opacity:1"
         d="M -1129.2422,-9.4492188 V 179.52734 l 32.7305,18.89844 v -18.89844 l 16.3672,9.44922 v -18.89844 l 16.3652,9.44922 V 66.142578 l -16.3652,-9.449219 V 37.794922 l -16.3672,-9.449219 V 9.4492188 Z m 16.3652,47.2441408 16.3653,9.449219 v 18.898437 l 16.3672,9.447266 v 75.591796 l -16.3672,-9.44922 v 18.89844 l -16.3653,-9.44922 z"
         transform="scale(0.26458333)" />
      <path
         style="fill:#ffffff;stroke:#000000;stroke-width:0.264583px;stroke-linecap:butt;stroke-linejoin:miter;stroke-opacity:1"
         d="m -298.77877,-2.5 4.33015,-2.5 8.66023,5 -4.33012,2.5 z"
         id="path9048" />
      <path
         style="fill:#ffffff;stroke:#000000;stroke-width:0.264583px;stroke-linecap:butt;stroke-linejoin:miter;stroke-opacity:1"
         d="m -285.78839,0 v 5 l -4.33012,2.5 v -5 z"
         id="path9050" />
      <path
         style="fill:#ffffff;stroke:#000000;stroke-width:0.264583px;stroke-linecap:butt;stroke-linejoin:miter;stroke-opacity:1"
         d="m -285.78839,5 4.33015,2.5 -4.33015,2.5 -4.33012,-2.5 z"
         id="path9052" />
      <path
         style="fill:#ffffff;stroke:#000000;stroke-width:0.264583px;stroke-linecap:butt;stroke-linejoin:miter;stroke-opacity:1"
         d="m -281.45824,7.5 v 5 l -4.33015,2.5 v -5 z"
         id="path9054" />
      <path
         style="fill:#ffffff;stroke:#000000;stroke-width:0.264583px;stroke-linecap:butt;stroke-linejoin:miter;stroke-opacity:1"
         d="m -281.45824,12.5 4.33011,2.5 -4.33011,2.5 -4.33015,-2.5 z"
         id="path9056" />
      <path
         style="fill:#ffffff;stroke:#000000;stroke-width:0.264583px;stroke-linecap:butt;stroke-linejoin:miter;stroke-opacity:1"
         d="M -277.12813,15 V 44.999999 L -281.45824,47.5 v -30 z"
         id="path9058" />
      <path
         style="fill:#cccccc;stroke:#000000;stroke-width:0.264583px;stroke-linecap:butt;stroke-linejoin:miter;stroke-opacity:1"
         d="m -290.11851,52.5 4.33012,-2.5 -4.33012,-2.5 z"
         id="path9060" />
      <path
         style="fill:#cccccc;stroke:#000000;stroke-width:0.264583px;stroke-linecap:butt;stroke-linejoin:miter;stroke-opacity:1"
         d="m -285.78839,50 4.33015,-2.5 -4.33015,-2.500001 z"
         id="path9062" />
      <path
         style="fill:none;stroke:#000000;stroke-width:0.264583px;stroke-linecap:butt;stroke-linejoin:miter;stroke-opacity:1"
         d="m -294.44862,10 v 29.999999 l 4.33011,2.5 v -5 l 4.33012,2.5 V 20 l -4.33012,-2.5 v -5 z"
         id="path9177" />
      <path
         style="fill:#b3b3b3;stroke:#000000;stroke-width:0.264583px;stroke-linecap:butt;stroke-linejoin:miter;stroke-opacity:1"
         d="m -294.44862,39.999999 4.33011,-2.5 v 5 z"
         id="path9292" />
      <path
         style="fill:#cccccc;stroke:#000000;stroke-width:0.264583px;stroke-linecap:butt;stroke-linejoin:miter;stroke-opacity:1"
         d="M -290.11851,37.499999 V 17.5 v -5 l -4.33011,-2.5 v 29.999999 z"
         id="path9294" />
      <path
         style="fill:#cccccc;stroke:#000000;stroke-width:0.264583px;stroke-linecap:butt;stroke-linejoin:miter;stroke-opacity:1"
         d="m -290.11851,37.499999 4.33012,-2.500001 v 5.000001 z"
         id="path9296" />
    </g>
    <g
       id="g1050"
       transform="translate(400.39489,60.715925)">
      <path
         id="path9450"
         style="fill:#ffffff;stroke:#000000;stroke-width:0.999999px;stroke-linecap:butt;stroke-linejoin:miter;stroke-opacity:1"
         d="M -1031.0469,47.244141 V 236.2207 l 32.73049,18.89649 V 236.2207 l 16.36719,9.44922 v -18.89844 l 16.36524,9.44922 V 122.83398 l -16.36524,-9.44726 V 94.488281 l -16.36719,-9.449219 V 66.142578 Z m 16.3653,47.24414 16.36519,9.449219 v 18.89648 l 16.36719,9.44922 v 75.58985 l -16.36719,-9.44727 v 18.89649 l -16.36519,-9.44922 z"
         transform="scale(0.26458333)" />
      <path
         style="fill:#ffffff;stroke:#000000;stroke-width:0.264583px;stroke-linecap:butt;stroke-linejoin:miter;stroke-opacity:1"
         d="m -272.798,12.500002 4.33015,-2.5 8.66023,5 -4.33012,2.5 z"
         id="path9452" />
      <path
         style="fill:#ffffff;stroke:#000000;stroke-width:0.264583px;stroke-linecap:butt;stroke-linejoin:miter;stroke-opacity:1"
         d="m -259.80762,15.000002 v 5 l -4.33012,2.5 v -5 z"
         id="path9454" />
      <path
         style="fill:#ffffff;stroke:#000000;stroke-width:0.264583px;stroke-linecap:butt;stroke-linejoin:miter;stroke-opacity:1"
         d="m -259.80762,20.000002 4.33015,2.5 -4.33015,2.5 -4.33012,-2.5 z"
         id="path9456" />
      <path
         style="fill:#ffffff;stroke:#000000;stroke-width:0.264583px;stroke-linecap:butt;stroke-linejoin:miter;stroke-opacity:1"
         d="m -255.47747,22.500002 v 5 l -4.33015,2.5 v -5 z"
         id="path9458" />
      <path
         style="fill:#ffffff;stroke:#000000;stroke-width:0.264583px;stroke-linecap:butt;stroke-linejoin:miter;stroke-opacity:1"
         d="m -255.47747,27.500002 4.33011,2.5 -4.33011,2.5 -4.33015,-2.5 z"
         id="path9460" />
      <path
         style="fill:#ffffff;stroke:#000000;stroke-width:0.264583px;stroke-linecap:butt;stroke-linejoin:miter;stroke-opacity:1"
         d="m -251.14736,30.000002 v 29.999999 l -4.33011,2.500001 v -30 z"
         id="path9462" />
      <path
         style="fill:#cccccc;stroke:#000000;stroke-width:0.264583px;stroke-linecap:butt;stroke-linejoin:miter;stroke-opacity:1"
         d="m -264.13774,67.500002 4.33012,-2.5 -4.33012,-2.5 z"
         id="path9464" />
      <path
         style="fill:#cccccc;stroke:#000000;stroke-width:0.264583px;stroke-linecap:butt;stroke-linejoin:miter;stroke-opacity:1"
         d="m -259.80762,65.000002 4.33015,-2.5 -4.33015,-2.500001 z"
         id="path9466" />
      <path
         style="fill:none;stroke:#000000;stroke-width:0.264583px;stroke-linecap:butt;stroke-linejoin:miter;stroke-opacity:1"
         d="m -268.46785,25.000002 v 29.999999 l 4.33011,2.5 v -5 l 4.33012,2.5 V 35.000002 l -4.33012,-2.5 v -5 z"
         id="path9468" />
      <path
         style="fill:#b3b3b3;stroke:#000000;stroke-width:0.264583px;stroke-linecap:butt;stroke-linejoin:miter;stroke-opacity:1"
         d="m -268.46785,55.000001 4.33011,-2.5 v 5 z"
         id="path9470" />
      <path
         style="fill:#cccccc;stroke:#000000;stroke-width:0.264583px;stroke-linecap:butt;stroke-linejoin:miter;stroke-opacity:1"
         d="m -264.13774,52.500001 v -19.999999 -5 l -4.33011,-2.5 v 29.999999 z"
         id="path9472" />
      <path
         style="fill:#cccccc;stroke:#000000;stroke-width:0.264583px;stroke-linecap:butt;stroke-linejoin:miter;stroke-opacity:1"
         d="M -264.13774,52.500001 -259.80762,50 v 5.000001 z"
         id="path9474" />
    </g>
    <g
       id="g1055"
       transform="translate(400.39489,60.715925)">
      <path
         style="fill:#ffffff;stroke:#000000;stroke-width:0.264583px;stroke-linecap:butt;stroke-linejoin:miter;stroke-opacity:1"
         d="m -246.81724,27.5 v 50 l 4.33013,2.499998 V 30 Z"
         id="path9523" />
      <path
         style="fill:#ffffff;stroke:#000000;stroke-width:0.264583px;stroke-linecap:butt;stroke-linejoin:miter;stroke-opacity:1"
         d="m -246.81724,27.5 4.33013,-2.5 4.33013,2.5 -4.33013,2.5 z"
         id="path9525" />
      <path
         style="fill:#ffffff;stroke:#000000;stroke-width:0.264583px;stroke-linecap:butt;stroke-linejoin:miter;stroke-opacity:1"
         d="m -238.15698,27.5 v 50 l -4.33013,2.499998 V 30 Z"
         id="path9527" />
    </g>
    <g
       id="g1020"
       transform="translate(400.39489,60.715925)">
      <path
         style="fill:#ffffff;stroke:#000000;stroke-width:0.264583px;stroke-linecap:butt;stroke-linejoin:miter;stroke-opacity:1"
         d="m -324.75953,-17.5 4.33015,-2.5 17.32049,10 -4.33011,2.5 z"
         id="path8121" />
      <path
         style="fill:#ffffff;stroke:#000000;stroke-width:0.264583px;stroke-linecap:butt;stroke-linejoin:miter;stroke-opacity:1"
         d="M -303.10889,-10 V 0 l -4.33011,2.5 v -10 z"
         id="path8123" />
      <path
         style="fill:#ffffff;stroke:#000000;stroke-width:0.264583px;stroke-linecap:butt;stroke-linejoin:miter;stroke-opacity:1"
         d="m -307.439,12.5 4.33011,-2.5 v 10 l -4.33011,2.5 z"
         id="path8125" />
      <path
         style="fill:#ffffff;stroke:#000000;stroke-width:0.264583px;stroke-linecap:butt;stroke-linejoin:miter;stroke-opacity:1"
         d="m -307.439,42.499999 4.33011,-2.5 V 30 l -4.33011,2.500001 z"
         id="path8129" />
      <path
         style="fill:#ffffff;stroke:#000000;stroke-width:0.264583px;stroke-linecap:butt;stroke-linejoin:miter;stroke-opacity:1"
         d="m -324.75953,-17.5 v 50.000001 l 17.32053,9.999998 V 32.500001 L -320.42938,25 V 15 l 12.99038,7.5 v -10 L -320.42938,5 V -5 l 12.99038,7.5 v -10 z"
         id="path10044" />
      <path
         style="fill:#cccccc;stroke:#000000;stroke-width:0.264583px;stroke-linecap:butt;stroke-linejoin:miter;stroke-opacity:1"
         d="m -303.10889,10 -12.99038,-7.5 v -5 L -320.42938,-5 V 5 l 4.33011,-2.5 -4.33011,2.5 12.99038,7.5 z"
         id="path10046" />
      <path
         style="fill:#cccccc;stroke:#000000;stroke-width:0.264583px;stroke-linecap:butt;stroke-linejoin:miter;stroke-opacity:1"
         d="m -303.10889,30 -12.99038,-7.5 v -5 l -4.33011,-2.5 v 10 l 4.33011,-2.5 -4.33011,2.5 12.99038,7.500001 z"
         id="path10048" />
    </g>
    <g
       id="g1064"
       transform="translate(400.39489,60.715925)">
      <path
         style="fill:#ffffff;stroke:#000000;stroke-width:0.264583px;stroke-linecap:butt;stroke-linejoin:miter;stroke-opacity:1"
         d="m -233.82688,35 4.33015,-2.5 17.32049,10 -4.33011,2.5 z"
         id="path9478" />
      <path
         style="fill:#ffffff;stroke:#000000;stroke-width:0.264583px;stroke-linecap:butt;stroke-linejoin:miter;stroke-opacity:1"
         d="m -212.17624,42.5 v 10 l -4.33011,2.5 V 45 Z"
         id="path9480" />
      <path
         style="fill:#ffffff;stroke:#000000;stroke-width:0.264583px;stroke-linecap:butt;stroke-linejoin:miter;stroke-opacity:1"
         d="m -216.50635,65 4.33011,-2.5 v 10 l -4.33011,2.5 z"
         id="path9482" />
      <path
         style="fill:#ffffff;stroke:#000000;stroke-width:0.264583px;stroke-linecap:butt;stroke-linejoin:miter;stroke-opacity:1"
         d="m -216.50635,94.999999 4.33011,-2.5 V 82.5 l -4.33011,2.500001 z"
         id="path9486" />
      <path
         style="fill:#ffffff;stroke:#000000;stroke-width:0.264583px;stroke-linecap:butt;stroke-linejoin:miter;stroke-opacity:1"
         d="m -233.82686,34.999998 v 50 l 17.32051,10.000001 V 84.999998 L -229.49673,77.5 V 67.499999 L -216.50635,75 V 64.999999 l -12.99038,-7.500001 V 47.5 l 12.99038,7.5 V 44.999999 Z"
         id="path10243" />
      <path
         style="fill:#cccccc;stroke:#000000;stroke-width:0.264583px;stroke-linecap:butt;stroke-linejoin:miter;stroke-opacity:1"
         d="M -212.17622,62.499999 -225.1666,55 v -5 l -4.33013,-2.5 v 9.999998 L -225.1666,55 l -4.33013,2.499998 12.99038,7.500001 z"
         id="path10245" />
      <path
         style="fill:#cccccc;stroke:#000000;stroke-width:0.264583px;stroke-linecap:butt;stroke-linejoin:miter;stroke-opacity:1"
         d="M -212.17622,82.499998 -225.1666,75 v -5.000001 l -4.33013,-2.5 V 77.5 l 4.33013,-2.5 -4.33013,2.5 12.99038,7.499998 z"
         id="path10247" />
    </g>
  </g>
</svg>
